<svg width="99" height="81" viewBox="0 0 99 81" fill="none" xmlns="http://www.w3.org/2000/svg">
<circle cx="49.5" cy="40.5" r="38.5" stroke="#10B981" stroke-width="4"/>
<path d="M63.24 62C63.16 54.76 62.92 48.6 62.52 43.52C62.12 38.4 61.48 33.38 60.6 28.46C59.04 32.58 57.7 36.46 56.58 40.1C55.46 43.74 53.96 49.1 52.08 56.18H46.14C44.5 49.7 43.1 44.56 41.94 40.76C40.82 36.92 39.44 32.82 37.8 28.46C36.96 33.38 36.32 38.4 35.88 43.52C35.48 48.64 35.2 54.8 35.04 62H27.54C27.7 53.52 28.18 45.96 28.98 39.32C29.82 32.64 31.1 26.2 32.82 20H41.28C43.4 25.16 44.98 29.34 46.02 32.54C47.1 35.7 48.12 39.26 49.08 43.22C50.08 39.34 51.12 35.84 52.2 32.72C53.32 29.56 54.96 25.32 57.12 20H65.58C67.38 26.24 68.7 32.7 69.54 39.38C70.38 46.06 70.84 53.6 70.92 62H63.24Z" fill="#10B981"/>
</svg>
